# xmcd
#
# Track frame offsets:
# 150
# 11986
# 24547
# 37175
# 50110
# 67203
# 78696
# 88831
# 99791
# 109991
# 121504
# 130017
# 144181
# 157316
# 171215
# 192678
# 207576
# 220501
# 235593
# 251300
# 268831
#
# Disc length: 3802 seconds
#
# Revision: 4
# Processed by: cddbd v1.5.2PL0 Copyright (c) Steve Scherf et al.
# Submitted via: Axialis_AX_CDPlayer 2.6
#
DISCID=370ed815
DTITLE=Johnny Cash - Ring Of Fire - The Legend Of Johnny Cash
DYEAR=1900
DGENRE=
TTITLE0=Ring Of Fire
TTITLE1=I Walk The Line
TTITLE2=Jackson
TTITLE3=Folsom Prison Blues
TTITLE4=A Boy Name Sue (Live)
TTITLE5=Big River
TTITLE6=Get Rhythm
TTITLE7=Cry! Cry! Cry!
TTITLE8=Hey Porter
TTITLE9=A Thing Called Love
TTITLE10=Guess Things Happen That Way
TTITLE11=San Quentin (Live)
TTITLE12=Man In Black
TTITLE13=Highwayman
TTITLE14=Wanderer - Johnny Cash, U2
TTITLE15=I've Been Everywhere
TTITLE16=Rusty Cage
TTITLE17=Personal Jesus
TTITLE18=Give My Love To Rose
TTITLE19=One
TTITLE20=Hurt
EXTD=
EXTT0=
EXTT1=
EXTT2=
EXTT3=
EXTT4=
EXTT5=
EXTT6=
EXTT7=
EXTT8=
EXTT9=
EXTT10=
EXTT11=
EXTT12=
EXTT13=
EXTT14=
EXTT15=
EXTT16=
EXTT17=
EXTT18=
EXTT19=
EXTT20=
PLAYORDER=
